<svg id="Capa_1" enable-background="new 0 0 512 512" height="512" viewBox="0 0 512 512" width="512" xmlns="http://www.w3.org/2000/svg" xmlns:xlink="http://www.w3.org/1999/xlink"><linearGradient id="SVGID_1_" gradientUnits="userSpaceOnUse" x1="430.994" x2="-9.007" y1="525.065" y2="-10.936"><stop offset=".0023" stop-color="#ff9494"/><stop offset=".992" stop-color="#ffe8dc" stop-opacity="0"/></linearGradient><linearGradient id="SVGID_2_" gradientUnits="userSpaceOnUse" x1="256" x2="256" y1="414.727" y2="156.732"><stop offset="0" stop-color="#ff4d4d" stop-opacity=".4"/><stop offset="1" stop-color="#ff4d4d" stop-opacity="0"/></linearGradient><g><g><path d="m419.843 204.806c1.055-7.758 1.57-15.687 1.509-23.748-.692-90.025-74.256-163.486-164.281-164.057-91.815-.581-166.428 73.673-166.428 165.354 0 7.615.516 15.109 1.513 22.45 4.043 29.747-9.887 59.143-35.212 75.263-35.611 22.668-56.944 51.54-56.944 82.98 0 72.876 114.615 131.954 256 131.954s256-59.078 256-131.954c0-31.44-21.333-60.312-56.946-82.98-25.325-16.12-39.254-45.516-35.211-75.262z" fill="url(#SVGID_1_)"/><g><g><g><path d="m193.687 189.489h-67.5v-27.757c0-2.761 2.238-5 5-5h57.5c2.761 0 5 2.239 5 5z" fill="#6c6cff"/><path d="m106.687 189.489h-37.5v-27.757c0-2.761 2.238-5 5-5h27.5c2.761 0 5 2.239 5 5z" fill="#ff6c6c"/><path d="m217 166.732v19.328h-162.489c-5.523 0-10 4.477-10 10v208.667c0 5.523 4.477 10 10 10h402.978c5.523 0 10-4.477 10-10v-237.995c0-5.523-4.477-10-10-10h-230.489c-5.523 0-10 4.477-10 10z" fill="#9494ff"/><path d="m44.511 251.199h422.978v139.861h-422.978z" fill="#6c6cff"/><circle cx="256" cy="322.63" fill="#ebebff" r="75.989"/><circle cx="256" cy="322.63" fill="#6c6cff" r="68.43"/><ellipse cx="305.021" cy="206.418" fill="#ff6c6c" rx="21.437" ry="21.437" transform="matrix(.23 -.973 .973 .23 34.045 455.854)"/><circle cx="91.428" cy="251.199" fill="#ebebff" r="15.158"/><circle cx="150.392" cy="318.665" fill="#b3b3ff" r="11.194"/><circle cx="161.586" cy="345" fill="#b3b3ff" r="7.992"/><path d="m420.833 229.136h-64.667c-2.761 0-5-2.238-5-5v-35.436c0-2.761 2.239-5 5-5h64.667c2.761 0 5 2.239 5 5v35.436c0 2.761-2.238 5-5 5z" fill="#6c6cff"/><path d="m363.548 197.56h49.903v31.667h-49.903z" fill="#8383ff"/><g><circle cx="256" cy="322.63" fill="#b3b3ff" r="53.015"/><circle cx="256" cy="322.63" fill="#d9d9ff" r="40.5"/><ellipse cx="276.828" cy="301.802" fill="#9494ff" rx="16.742" ry="16.742" transform="matrix(.707 -.707 .707 .707 -132.325 284.143)"/></g><g><path d="m439.767 373.13h-76.52c-2.762 0-5-2.239-5-5s2.238-5 5-5h76.52c2.762 0 5 2.239 5 5s-2.238 5-5 5z" fill="#ff6c6c"/></g></g><g><g><g><path d="m280.433 114.472c-.884 0-1.777-.234-2.589-.726-6.578-3.991-14.132-6.101-21.844-6.101s-15.266 2.109-21.844 6.101c-2.362 1.433-5.436.679-6.869-1.682-1.432-2.361-.679-5.437 1.682-6.869 8.143-4.938 17.49-7.55 27.031-7.55s18.889 2.611 27.031 7.55c2.36 1.433 3.113 4.508 1.682 6.869-.941 1.55-2.59 2.408-4.28 2.408z" fill="#4d4dff"/></g><g><path d="m266.392 130.709c-.883 0-1.777-.234-2.588-.726-4.701-2.852-10.906-2.852-15.607 0-2.358 1.432-5.435.679-6.868-1.683-1.432-2.36-.679-5.436 1.683-6.868 3.914-2.374 8.405-3.629 12.989-3.629s9.075 1.255 12.989 3.629c2.361 1.433 3.114 4.508 1.683 6.868-.942 1.552-2.591 2.409-4.281 2.409z" fill="#4d4dff"/></g><g><path d="m293.424 97.388c-.883 0-1.777-.234-2.588-.726-10.493-6.364-22.539-9.729-34.836-9.729s-24.343 3.364-34.836 9.729c-2.361 1.433-5.437.679-6.868-1.683-1.432-2.36-.679-5.436 1.683-6.868 12.056-7.312 25.895-11.178 40.021-11.178s27.966 3.865 40.022 11.178c2.361 1.433 3.114 4.508 1.683 6.868-.941 1.551-2.591 2.409-4.281 2.409z" fill="#4d4dff"/></g></g></g></g><g><path d="m436.756 135.27c-7.175 0-13.013-5.838-13.013-13.013s5.838-13.012 13.013-13.012 13.012 5.837 13.012 13.012-5.837 13.013-13.012 13.013zm0-16.024c-1.661 0-3.013 1.351-3.013 3.012s1.352 3.013 3.013 3.013 3.012-1.352 3.012-3.013-1.351-3.012-3.012-3.012z" fill="#ff6c6c"/></g><g><path d="m161.586 131.07c-7.175 0-13.012-5.837-13.012-13.012s5.837-13.012 13.012-13.012 13.012 5.837 13.012 13.012-5.837 13.012-13.012 13.012zm0-16.023c-1.661 0-3.012 1.351-3.012 3.012s1.351 3.012 3.012 3.012 3.012-1.351 3.012-3.012c0-1.662-1.351-3.012-3.012-3.012z" fill="#ff6c6c"/></g><g><path d="m76.27 470.804c-7.175 0-13.013-5.837-13.013-13.012s5.838-13.012 13.013-13.012 13.012 5.837 13.012 13.012-5.838 13.012-13.012 13.012zm0-16.024c-1.661 0-3.013 1.351-3.013 3.012s1.352 3.012 3.013 3.012 3.012-1.351 3.012-3.012-1.351-3.012-3.012-3.012z" fill="#6c6cff"/></g><g><path d="m114 73.78c-1.279 0-2.56-.488-3.535-1.465l-11.292-11.292c-1.953-1.952-1.953-5.118 0-7.07l11.292-11.292c1.951-1.953 5.119-1.953 7.07 0l11.292 11.292c1.953 1.952 1.953 5.118 0 7.07l-11.292 11.292c-.975.977-2.256 1.465-3.535 1.465zm-4.221-16.292 4.221 4.221 4.221-4.221-4.221-4.22z" fill="#ff9d33"/></g><g><path d="m416.452 95.28c-1.326 0-2.598-.526-3.535-1.465l-11.293-11.293c-.939-.938-1.465-2.209-1.465-3.535s.527-2.598 1.465-3.536l11.293-11.292c1.951-1.951 5.119-1.952 7.07.001l11.292 11.292c1.953 1.952 1.953 5.118.001 7.07l-11.292 11.293c-.938.938-2.21 1.465-3.536 1.465zm-4.222-16.293 4.222 4.222 4.221-4.222-4.221-4.221z" fill="#6c6cff"/></g></g></g><path d="m217 166.732v19.328h-162.489c-5.523 0-10 4.477-10 10v208.667c0 5.523 4.477 10 10 10h402.978c5.523 0 10-4.477 10-10v-237.995c0-5.523-4.477-10-10-10h-230.489c-5.523 0-10 4.477-10 10z" fill="url(#SVGID_2_)"/></g></svg>