<svg id="Capa_1" enable-background="new 0 0 512 512" height="512" viewBox="0 0 512 512" width="512" xmlns="http://www.w3.org/2000/svg" xmlns:xlink="http://www.w3.org/1999/xlink"><linearGradient id="SVGID_1_" gradientTransform="matrix(1 0 0 -1 -561.6 -7650.99)" gradientUnits="userSpaceOnUse" x1="998.685" x2="557.6" y1="-7725.905" y2="-8166.99"><stop offset="0" stop-color="#ffd9d9" stop-opacity="0"/><stop offset=".9981" stop-color="#ffb3b3"/></linearGradient><linearGradient id="SVGID_2_" gradientUnits="userSpaceOnUse" x1="256.001" x2="256.001" y1="378.634" y2="111.69"><stop offset="0" stop-color="#ff4d4d" stop-opacity=".4"/><stop offset="1" stop-color="#ff4d4d" stop-opacity="0"/></linearGradient><g><g><path d="m411.152 155.152c-29.991 0-54.303-24.312-54.303-54.303 0-55.698-45.152-100.849-100.849-100.849s-100.848 45.151-100.848 100.848c0 29.991-24.312 54.303-54.303 54.303-55.698.001-100.849 45.152-100.849 100.849s45.151 100.848 100.848 100.848c29.991 0 54.303 24.312 54.303 54.303.001 55.698 45.152 100.849 100.849 100.849s100.848-45.151 100.848-100.848c0-29.991 24.312-54.303 54.303-54.303 55.698-.001 100.849-45.152 100.849-100.849s-45.151-100.848-100.848-100.848z" fill="url(#SVGID_1_)"/><g><g><path d="m452.044 378.634h-392.088v-249.734c0-9.505 7.705-17.21 17.21-17.21h357.669c9.505 0 17.21 7.705 17.21 17.21v249.734z" fill="#8383ff"/><path d="m423.828 330.976h-335.656c-2.761 0-5-2.239-5-5v-184.432c0-2.761 2.239-5 5-5h335.656c2.761 0 5 2.239 5 5v184.432c0 2.761-2.238 5-5 5z" fill="#fff"/><g><g><path d="m397.715 330.976c10.906-10.998 17.646-26.132 17.646-42.843 0-27.256-17.916-50.329-42.619-58.074v-53.719h9.877c1.398 0 2.533-1.135 2.533-2.533v-16.731c0-1.398-1.135-2.533-2.533-2.533h-56.225c-1.398 0-2.533 1.135-2.533 2.533v16.731c0 1.398 1.135 2.533 2.533 2.533h9.877v53.718c-24.704 7.745-42.62 30.817-42.62 58.074 0 16.678 6.796 31.829 17.746 42.843h86.318z" fill="#d9d9ff"/><circle cx="380.699" cy="295.603" fill="#ffd9d9" r="19.413"/><path d="m385.151 157.077v16.731c0 1.398-1.135 2.533-2.533 2.533h-56.225c-1.398 0-2.533-1.135-2.533-2.533v-16.731c0-1.398 1.135-2.533 2.533-2.533h56.225c1.399 0 2.533 1.135 2.533 2.533z" fill="#8383ff"/><path d="m336.271 176.337h36.47v11.263h-36.47z" fill="#b3b3ff"/><path d="m397.694 330.976c8.027-8.09 13.808-18.41 16.298-29.962h-118.958c2.51 11.536 8.324 21.864 16.376 29.962z" fill="#ff6c6c"/><circle cx="372.428" cy="311.533" fill="#ffd9d9" r="5.771"/></g><g><path d="m114.285 330.976c-10.906-10.998-17.646-26.132-17.646-42.843 0-27.256 17.916-50.329 42.62-58.074v-53.719h-9.877c-1.398 0-2.533-1.135-2.533-2.533v-16.731c0-1.398 1.135-2.533 2.533-2.533h56.225c1.398 0 2.533 1.135 2.533 2.533v16.731c0 1.398-1.135 2.533-2.533 2.533h-9.877v53.718c24.704 7.745 42.62 30.817 42.62 58.074 0 16.678-6.796 31.829-17.746 42.843h-86.319z" fill="#d9d9ff"/><circle cx="143.315" cy="291.547" fill="#ebebff" r="23.469"/><path d="m126.849 157.077v16.731c0 1.398 1.135 2.533 2.533 2.533h56.225c1.398 0 2.533-1.135 2.533-2.533v-16.731c0-1.398-1.135-2.533-2.533-2.533h-56.225c-1.399 0-2.533 1.135-2.533 2.533z" fill="#8383ff"/><path d="m139.259 176.337h36.47v11.263h-36.47z" fill="#b3b3ff"/><path d="m114.306 330.976c-8.027-8.09-13.808-18.41-16.298-29.962h118.958c-2.51 11.536-8.324 21.864-16.376 29.962z" fill="#b3b3ff"/><circle cx="143.315" cy="250.933" fill="#ebebff" r="5.771"/></g></g></g><path d="m388.699 60.193h-3v-3c0-2.762-2.239-5-5-5s-5 2.238-5 5v3h-3c-2.761 0-5 2.238-5 5s2.239 5 5 5h3v3c0 2.762 2.239 5 5 5s5-2.238 5-5v-3h3c2.761 0 5-2.238 5-5s-2.239-5-5-5z" fill="#8383ff"/><path d="m134.849 462h-3v-3c0-2.762-2.239-5-5-5s-5 2.238-5 5v3h-3c-2.761 0-5 2.238-5 5s2.239 5 5 5h3v3c0 2.762 2.239 5 5 5s5-2.238 5-5v-3h3c2.761 0 5-2.238 5-5s-2.239-5-5-5z" fill="#8383ff"/><path d="m436.828 85.191c-1.28 0-2.559-.488-3.536-1.465l-4.464-4.464-4.464 4.464c-1.953 1.953-5.118 1.953-7.071 0-1.953-1.952-1.953-5.118 0-7.07l8-8c1.953-1.953 5.118-1.953 7.071 0l8 8c1.953 1.952 1.953 5.118 0 7.07-.977.977-2.256 1.465-3.536 1.465z" fill="#ff6c6c"/><path d="m98.667 456c-1.28 0-2.559-.488-3.536-1.465l-4.464-4.464-4.464 4.464c-1.953 1.953-5.118 1.953-7.071 0-1.953-1.952-1.953-5.118 0-7.07l8-8c1.953-1.953 5.118-1.953 7.071 0l8 8c1.953 1.952 1.953 5.118 0 7.07-.977.977-2.257 1.465-3.536 1.465z" fill="#ff6c6c"/><path d="m393.151 464c-1.28 0-2.559-.488-3.536-1.465l-4.464-4.464-4.464 4.464c-1.953 1.953-5.118 1.953-7.071 0-1.953-1.952-1.953-5.118 0-7.07l8-8c1.953-1.953 5.118-1.953 7.071 0l8 8c1.953 1.952 1.953 5.118 0 7.07-.977.977-2.256 1.465-3.536 1.465z" fill="#ff9d33"/><path d="m452.044 378.634h-392.088v-249.734c0-9.505 7.705-17.21 17.21-17.21h357.669c9.505 0 17.21 7.705 17.21 17.21v249.734z" fill="url(#SVGID_2_)"/><g><path d="m331.696 378.634c19.105-19.267 30.914-45.78 30.914-75.057 0-47.75-31.387-88.17-74.664-101.738v-125.642h17.304c2.449 0 4.437-1.988 4.437-4.437v-29.31c0-2.449-1.988-4.437-4.437-4.437h-98.5c-2.449 0-4.437 1.988-4.437 4.437v29.31c0 2.449 1.988 4.437 4.437 4.437h17.304v125.642c-43.278 13.568-74.664 53.988-74.664 101.738 0 29.219 11.907 55.761 31.088 75.057z" fill="#d9d9ff"/><circle cx="228.217" cy="316.665" fill="#ffc599" r="34.008"/><path d="m309.686 42.45v29.31c0 2.449-1.988 4.437-4.437 4.437h-98.499c-2.449 0-4.437-1.988-4.437-4.437v-29.31c0-2.449 1.988-4.437 4.437-4.437h98.499c2.45 0 4.437 1.988 4.437 4.437z" fill="#8383ff"/><path d="m224.054 76.192h63.891v19.732h-63.891z" fill="#b3b3ff"/><path d="m331.66 378.634c14.062-14.172 24.19-32.252 28.552-52.49h-208.4c4.397 20.21 14.583 38.303 28.689 52.49z" fill="#ff9d33"/><g fill="#ffc599"><circle cx="287.396" cy="344.573" r="10.11"/><circle cx="318.117" cy="303.378" r="6.513"/><circle cx="290.312" cy="289.169" r="6.513"/><circle cx="302.735" cy="258.407" r="15.381"/></g></g><g><path d="m481.99 364.95v25.21c0 5.52-4.47 10-10 10h-431.98c-5.53 0-10-4.48-10-10v-25.21c0-5.52 4.47-10 10-10h136.005c1.451 0 2.831.63 3.78 1.728l12.875 14.872h126.66l12.875-14.872c.95-1.097 2.329-1.728 3.78-1.728h136.005c5.53 0 10 4.48 10 10z" fill="#d9d9ff"/></g></g></g></g></svg>