<svg enable-background="new 0 0 32 32" height="512" viewBox="0 0 32 32" width="512" xmlns="http://www.w3.org/2000/svg"><g id="BG" fill="#ffe6e2"><path d="m26 32h-20c-3.314 0-6-2.686-6-6v-20c0-3.314 2.686-6 6-6h20c3.314 0 6 2.686 6 6v20c0 3.314-2.686 6-6 6z"/><path d="m26 32h-20c-3.314 0-6-2.686-6-6v-20c0-3.314 2.686-6 6-6h20c3.314 0 6 2.686 6 6v20c0 3.314-2.686 6-6 6z"/></g><g id="Layer_3"><g><g><path d="m17.233 24h6.033c.406 0 .734-.328.734-.733v-3.2c0-.405-.328-.733-.733-.733h-6.033c-.405 0-.733.328-.733.733v3.2c-.001.405.327.733.732.733z" fill="#fc573b"/></g><g><path d="m8 20.067v3.2c0 .405.328.733.733.733h6.033c.405 0 .733-.328.733-.733v-3.2c0-.405-.328-.733-.733-.733h-6.033c-.405-.001-.733.328-.733.733z" fill="#fd907e"/></g><g><path d="m8 17.6c0 .405.328.733.733.733h6.767 1 6.767c.405 0 .733-.328.733-.733v-3.2c0-.405-.328-.733-.733-.733h-14.534c-.405 0-.733.328-.733.733z" fill="#fd907e"/></g><g><path d="m23.267 8h-14.534c-.405 0-.733.328-.733.733v3.2c0 .405.328.733.733.733h14.533c.405 0 .733-.328.733-.733v-3.2c.001-.405-.327-.733-.732-.733z" fill="#fc573b"/></g></g></g></svg>