<svg id="Capa_1" enable-background="new 0 0 512 512" height="512" viewBox="0 0 512 512" width="512" xmlns="http://www.w3.org/2000/svg" xmlns:xlink="http://www.w3.org/1999/xlink"><linearGradient id="SVGID_1_" gradientUnits="userSpaceOnUse" x1="256" x2="256" y1="-9.782" y2="624.8"><stop offset=".0023" stop-color="#ffc599"/><stop offset=".992" stop-color="#ffe8dc" stop-opacity="0"/></linearGradient><linearGradient id="SVGID_2_" gradientUnits="userSpaceOnUse" x1="243.18" x2="243.18" y1="446.124" y2="78.471"><stop offset="0" stop-color="#ff4d4d" stop-opacity=".4"/><stop offset="1" stop-color="#ff4d4d" stop-opacity="0"/></linearGradient><g><path d="m512 186.131c0-77.209-114.615-139.799-256-139.799s-256 62.59-256 139.799c0 12.48 2.998 24.577 8.62 36.089 10.007 20.491 12.502 43.828 7.537 66.086-2.036 9.127-3.179 18.59-3.333 28.294-1.235 77.812 61.961 142.061 139.782 142.061 58.443-.001 108.503-35.865 129.385-86.785 11.468-27.964 35.565-48.919 65.155-55.077 96.38-20.058 164.854-70.993 164.854-130.668z" fill="url(#SVGID_1_)"/><g><g><g><g><path d="m306.808 446.124v-79.769c0-6.303 3.204-12.154 8.479-15.604 38.789-25.366 73.492-65.415 77.2-112.983 10.236-131.298-117.399-202.397-221.082-131.021 0 0-76.566 53.374-78.11 170.03-.034 2.599 2.058 4.733 4.657 4.733h29.459s-6.555 87.148 8.623 95.121c6.778 3.56 24.631 5.251 42.911 3.942v65.551z" fill="#ffab66"/><path d="m391.852 243.759c-3.26 24.39-14.6 46.67-30.22 65.83l-26.05-21.83c-3.68-3.08-4.65-8.33-2.32-12.52l12.65-22.78-79.7-108.98-13.31 24.08c5.81 5.71 10.52 12.54 13.77 20.13 3.26 7.6 5.06 15.97 5.06 24.75 0 34.77-28.18 62.95-62.95 62.95h-115.46c1.01-54.63 18.46-95.27 36.62-122.94 5.36-1.92 11.12-2.95 17.07-2.95h34.4c12.09-29.11 40.81-69.87 93.5-65.08 6.31.57 10.46 6.87 8.58 12.92l-2.42 7.78c-2.4 7.73-.94 16.15 3.92 22.63l62.77 83.67c11.2 14.93 26.56 26.17 44.09 32.34z" fill="#ff9d33"/><path d="m306.808 446.124v-79.769c0-6.303 3.204-12.154 8.479-15.604 38.789-25.366 73.492-65.415 77.2-112.983 10.236-131.298-117.399-202.397-221.082-131.021 0 0-76.566 53.374-78.11 170.03-.034 2.599 2.058 4.733 4.657 4.733h29.459s-6.555 87.148 8.623 95.121c6.778 3.56 24.631 5.251 42.911 3.942v65.551z" fill="url(#SVGID_2_)"/><path d="m397.543 225.446c4.363 1.233 7.35 5.238 7.281 9.772-.205 13.487-2.756 41.692-19.174 61.333-3.541 4.236-9.858 4.782-14.09 1.236l-35.982-30.147c-3.674-3.078-4.647-8.33-2.32-12.52l12.651-22.782-79.7-108.975-17.479 31.642h-74.324c0-14.963 26.796-97.4 100.51-90.704 6.308.573 10.453 6.874 8.574 12.923l-2.416 7.776c-2.403 7.736-.946 16.155 3.915 22.634l62.769 83.662c12.404 16.533 29.896 28.531 49.785 34.15z" fill="#fff"/><g><path d="m98.018 166.711c-7.089 25.763-15.874 58.395-20.592 75.972-1.705 6.352 3.082 12.589 9.659 12.589h121.7c34.765 0 62.947-28.182 62.947-62.947 0-34.765-28.182-62.947-62.947-62.947h-61.775c-22.873-.001-42.923 15.279-48.992 37.333z" fill="#fff"/><path d="m251.729 192.327c0 23.68-19.26 42.94-42.94 42.94h-129.36c4.93-18.38 12.41-46.08 18.59-68.56 1.76-6.42 4.72-12.27 8.58-17.33h102.19c23.68 0 42.94 19.27 42.94 42.95z" fill="#8383ff"/></g></g><g><path d="m426.041 392.745h-163.373c-2.493 0-4.513-2.021-4.513-4.513v-92.12c0-2.493 2.021-4.513 4.513-4.513h27.279l14.479-18.371c1.807-2.293 5.283-2.293 7.09 0l14.479 18.371h100.045c2.493 0 4.514 2.021 4.514 4.513v92.12c0 2.492-2.021 4.513-4.513 4.513z" fill="#ff6c6c"/><g><g><path d="m343.46 317.165h52.539c2.323 0 4.205 1.883 4.205 4.205s-1.883 4.206-4.205 4.206h-52.539c-2.323 0-4.205-1.883-4.205-4.206 0-2.322 1.883-4.205 4.205-4.205z" fill="#fff"/></g><g><path d="m297.515 342.227h98.484c2.323 0 4.205 1.883 4.205 4.206 0 2.322-1.883 4.205-4.205 4.205h-98.484c-2.323 0-4.205-1.883-4.205-4.205 0-2.323 1.883-4.206 4.205-4.206z" fill="#fff"/></g><g><path d="m324.596 359.164h71.403c2.323 0 4.205 1.883 4.205 4.205 0 2.323-1.883 4.205-4.205 4.205h-71.403c-2.323 0-4.205-1.883-4.205-4.205s1.882-4.205 4.205-4.205z" fill="#fff"/></g></g></g><circle cx="239.868" cy="115.994" fill="#ff6c6c" r="6.841"/><g fill="#8383ff"><circle cx="357.259" cy="257.859" r="6.841"/><circle cx="374.952" cy="271.507" r="6.841"/></g></g><g fill="#4d4dff"><path d="m377.556 84.99c7.475 1.83 14.308 5.68 19.761 11.133 5.453 5.454 9.303 12.287 11.133 19.761.559 2.282 2.603 3.812 4.853 3.812.394 0 .794-.047 1.193-.145 2.682-.656 4.324-3.363 3.667-6.046-2.265-9.25-7.028-17.706-13.775-24.452-6.746-6.747-15.202-11.51-24.452-13.775-2.684-.659-5.39.985-6.046 3.667-.659 2.681.984 5.387 3.666 6.045z"/><path d="m376.003 106.4c2.67.653 5.11 2.028 7.059 3.977 1.948 1.949 3.324 4.39 3.978 7.06.559 2.282 2.603 3.812 4.853 3.812.394 0 .794-.047 1.193-.145 2.682-.656 4.324-3.363 3.667-6.046-1.088-4.445-3.378-8.509-6.62-11.751-3.241-3.242-7.305-5.531-11.75-6.619-2.686-.658-5.39.985-6.046 3.667-.658 2.681.984 5.388 3.666 6.045z"/><path d="m439.428 110.61c-3.354-13.695-10.406-26.215-20.395-36.203-9.989-9.99-22.508-17.042-36.204-20.395-2.686-.657-5.39.985-6.046 3.667-.657 2.683.985 5.39 3.667 6.046 11.92 2.918 22.816 9.058 31.512 17.753 8.695 8.696 14.834 19.592 17.753 31.512.559 2.282 2.603 3.812 4.853 3.812.393 0 .794-.047 1.193-.145 2.681-.659 4.324-3.365 3.667-6.047z"/></g></g><path d="m219.005 150.605-84.66 84.66h-19.07l85.89-85.89h7.62c3.52 0 6.94.431 10.22 1.23z" fill="#b3b3ff"/><path d="m248.665 176.415-58.85 58.85h-43.46l81.44-81.44c9.45 4.68 16.93 12.741 20.87 22.59z" fill="#b3b3ff"/><g><path d="m344.354 467.147c-7.175 0-13.012-5.837-13.012-13.012s5.837-13.012 13.012-13.012 13.012 5.837 13.012 13.012-5.837 13.012-13.012 13.012zm0-16.024c-1.661 0-3.012 1.351-3.012 3.012s1.351 3.012 3.012 3.012 3.012-1.351 3.012-3.012-1.35-3.012-3.012-3.012z" fill="#ff6c6c"/></g><g><path d="m96.615 119.641c-7.175 0-13.012-5.837-13.012-13.012s5.837-13.012 13.012-13.012 13.012 5.837 13.012 13.012-5.837 13.012-13.012 13.012zm0-16.023c-1.661 0-3.012 1.351-3.012 3.012s1.351 3.012 3.012 3.012 3.012-1.351 3.012-3.012-1.351-3.012-3.012-3.012z" fill="#ff6c6c"/></g><g><path d="m68.137 369.752c-1.28 0-2.559-.488-3.536-1.465l-11.292-11.292c-.938-.938-1.464-2.209-1.464-3.535s.527-2.598 1.464-3.535l11.292-11.293c.938-.938 2.209-1.465 3.536-1.465 1.326 0 2.598.527 3.536 1.465l11.292 11.293c1.953 1.952 1.953 5.118 0 7.07l-11.292 11.292c-.977.977-2.256 1.465-3.536 1.465zm-4.221-16.292 4.221 4.221 4.221-4.221-4.221-4.222z" fill="#ff9d33"/></g><g><path d="m115.275 77.438c-1.326 0-2.598-.526-3.536-1.465l-11.292-11.293c-.938-.938-1.464-2.209-1.464-3.535s.527-2.598 1.464-3.535l11.292-11.292c1.954-1.953 5.119-1.952 7.071 0l11.292 11.292c1.953 1.952 1.953 5.118 0 7.07l-11.292 11.293c-.937.938-2.208 1.465-3.535 1.465zm-4.221-16.293 4.221 4.222 4.221-4.222-4.221-4.221z" fill="#6c6cff"/></g><g><path d="m443.863 264.419c-1.279 0-2.559-.488-3.535-1.464l-11.293-11.292c-.938-.938-1.465-2.21-1.465-3.536s.526-2.598 1.465-3.535l11.293-11.293c.938-.939 2.209-1.465 3.535-1.465 1.326 0 2.598.527 3.536 1.465l11.292 11.293c1.952 1.952 1.952 5.118-.001 7.07l-11.292 11.292c-.975.977-2.255 1.465-3.535 1.465zm-4.221-16.292 4.222 4.221 4.221-4.221-4.221-4.222z" fill="#6c6cff"/></g></g></g></svg>